<?xml version="1.0" encoding="UTF-8" standalone="no"?>
<!-- Created with Inkscape (http://www.inkscape.org/) -->

<svg
   xmlns:dc="http://purl.org/dc/elements/1.1/"
   xmlns:cc="http://creativecommons.org/ns#"
   xmlns:rdf="http://www.w3.org/1999/02/22-rdf-syntax-ns#"
   xmlns:svg="http://www.w3.org/2000/svg"
   xmlns="http://www.w3.org/2000/svg"
   xmlns:xlink="http://www.w3.org/1999/xlink"
   xmlns:sodipodi="http://sodipodi.sourceforge.net/DTD/sodipodi-0.dtd"
   xmlns:inkscape="http://www.inkscape.org/namespaces/inkscape"
   width="1024"
   height="1024"
   viewBox="0 0 270.93333 270.93333"
   version="1.1"
   id="svg3705"
   inkscape:version="0.92.2 (5c3e80d, 2017-08-06)"
   sodipodi:docname="icon.svg">
  <defs
     id="defs3699">
    <linearGradient
       inkscape:collect="always"
       id="linearGradient4578">
      <stop
         style="stop-color:#000000;stop-opacity:1;"
         offset="0"
         id="stop4574" />
      <stop
         style="stop-color:#535353;stop-opacity:1"
         offset="1"
         id="stop4576" />
    </linearGradient>
    <linearGradient
       inkscape:collect="always"
       xlink:href="#linearGradient4578"
       id="linearGradient4580"
       x1="133.79309"
       y1="133.34329"
       x2="133.87668"
       y2="33.117218"
       gradientUnits="userSpaceOnUse" />
    <linearGradient
       inkscape:collect="always"
       xlink:href="#linearGradient4578"
       id="linearGradient4624"
       gradientUnits="userSpaceOnUse"
       x1="73.499123"
       y1="76.769913"
       x2="91.406181"
       y2="85.055267" />
    <linearGradient
       inkscape:collect="always"
       xlink:href="#linearGradient4578"
       id="linearGradient4626"
       gradientUnits="userSpaceOnUse"
       x1="129.62572"
       y1="100.82417"
       x2="129.09119"
       y2="47.637531" />
    <linearGradient
       inkscape:collect="always"
       xlink:href="#linearGradient4578"
       id="linearGradient4628"
       gradientUnits="userSpaceOnUse"
       x1="129.62572"
       y1="100.82417"
       x2="129.09119"
       y2="47.637531"
       gradientTransform="translate(-1.5875,-1.0583333)" />
    <linearGradient
       inkscape:collect="always"
       xlink:href="#linearGradient4578"
       id="linearGradient4630"
       gradientUnits="userSpaceOnUse"
       x1="329.30972"
       y1="300.73077"
       x2="337.39096"
       y2="84.558136" />
    <filter
       style="color-interpolation-filters:sRGB;"
       inkscape:label="Drop Shadow"
       id="filter4889">
      <feFlood
         flood-opacity="0.498039"
         flood-color="rgb(0,0,0)"
         result="flood"
         id="feFlood4879" />
      <feComposite
         in="flood"
         in2="SourceGraphic"
         operator="in"
         result="composite1"
         id="feComposite4881" />
      <feGaussianBlur
         in="composite1"
         stdDeviation="1"
         result="blur"
         id="feGaussianBlur4883" />
      <feOffset
         dx="1"
         dy="1.1"
         result="offset"
         id="feOffset4885" />
      <feComposite
         in="SourceGraphic"
         in2="offset"
         operator="over"
         result="composite2"
         id="feComposite4887" />
    </filter>
  </defs>
  <sodipodi:namedview
     id="base"
     pagecolor="#ffffff"
     bordercolor="#666666"
     borderopacity="1.0"
     inkscape:pageopacity="0.0"
     inkscape:pageshadow="2"
     inkscape:zoom="0.7"
     inkscape:cx="493.22591"
     inkscape:cy="554.43041"
     inkscape:document-units="mm"
     inkscape:current-layer="g4622"
     showgrid="false"
     units="px"
     inkscape:window-width="1680"
     inkscape:window-height="988"
     inkscape:window-x="-8"
     inkscape:window-y="-8"
     inkscape:window-maximized="1"
     inkscape:snap-text-baseline="false" />
  <metadata
     id="metadata3702">
    <rdf:RDF>
      <cc:Work
         rdf:about="">
        <dc:format>image/svg+xml</dc:format>
        <dc:type
           rdf:resource="http://purl.org/dc/dcmitype/StillImage" />
        <dc:title></dc:title>
      </cc:Work>
    </rdf:RDF>
  </metadata>
  <g
     inkscape:label="Calque 1"
     inkscape:groupmode="layer"
     id="layer1"
     transform="translate(0,-26.066668)">
    <g
       id="g4545">
      <g
         id="g4572"
         style="fill-opacity:1;fill:url(#linearGradient4580)">
        <g
           id="g4612">
          <g
             id="g4622"
             style="fill-opacity:1;fill:url(#linearGradient4624)">
            <g
               id="g4637"
               style="filter:url(#filter4889)"
               inkscape:export-xdpi="72"
               inkscape:export-ydpi="72">
              <path
                 style="fill:url(#linearGradient4630);fill-opacity:1;stroke-width:0.31102091"
                 d="M 208.11914 18.693359 A 49.401192 49.401192 0 0 0 160.26172 54.539062 A 49.401192 49.401192 0 0 0 194.21289 115.59766 A 49.401192 49.401192 0 0 0 227.28125 113.44531 L 260.57617 154.61914 A 73.831982 73.831982 0 0 0 241.63672 186.67188 A 73.831982 73.831982 0 0 0 255.5332 253.69531 L 232.79102 293.875 A 49.401192 49.401192 0 0 0 228.18164 292.30469 A 49.401192 49.401192 0 0 0 167.12305 326.25781 A 49.401192 49.401192 0 0 0 201.07422 387.31641 A 49.401192 49.401192 0 0 0 262.13281 353.36523 A 49.401192 49.401192 0 0 0 249.45312 304.78906 L 270.56055 267.50586 A 73.831982 73.831982 0 0 0 292.37891 277.92773 A 73.831982 73.831982 0 0 0 358.85938 264.4375 L 442.20898 337.78906 A 56.526641 56.526641 45 0 0 439.81055 344.40625 A 56.526641 56.526641 45 0 0 478.66016 414.27344 A 56.526641 56.526641 45 0 0 548.52539 375.42383 A 56.526641 56.526641 45 0 0 509.67578 305.55859 A 56.526641 56.526641 45 0 0 453.22656 321 L 372.51172 249.96875 A 73.831982 73.831982 0 0 0 383.63477 227.18555 A 73.831982 73.831982 0 0 0 332.89258 135.92969 A 73.831982 73.831982 0 0 0 276.45117 142.63867 L 243.61133 102.0293 A 49.401192 49.401192 0 0 0 255.27344 81.646484 A 49.401192 49.401192 0 0 0 221.32031 20.587891 A 49.401192 49.401192 0 0 0 208.11914 18.693359 z "
                 transform="matrix(0.26458333,0,0,0.26458333,0,26.066668)"
                 id="path3707" />
              <text
                 id="text4528"
                 y="102.34998"
                 x="11.314795"
                 style="font-style:normal;font-weight:normal;font-size:74.64718628px;line-height:1.25;font-family:sans-serif;letter-spacing:0px;word-spacing:0px;fill:url(#linearGradient4628);fill-opacity:1;stroke:none;stroke-width:1.86617982"
                 xml:space="preserve"><tspan
                   style="font-style:normal;font-variant:normal;font-weight:normal;font-stretch:normal;font-size:74.64606476px;font-family:serif;-inkscape-font-specification:'serif, Normal';font-variant-ligatures:normal;font-variant-caps:normal;font-variant-numeric:normal;font-feature-settings:normal;text-align:start;writing-mode:lr-tb;text-anchor:start;fill:url(#linearGradient4628);fill-opacity:1;stroke-width:1.86617982"
                   y="102.34998"
                   x="11.314795"
                   id="tspan4526"
                   sodipodi:role="line">N</tspan></text>
              <text
                 xml:space="preserve"
                 style="font-style:normal;font-weight:normal;font-size:74.64718628px;line-height:1.25;font-family:sans-serif;letter-spacing:0px;word-spacing:0px;fill:url(#linearGradient4626);fill-opacity:1;stroke:none;stroke-width:1.86617982"
                 x="102.97212"
                 y="98.59745"
                 id="text4532"><tspan
                   sodipodi:role="line"
                   id="tspan4530"
                   x="102.97212"
                   y="98.59745"
                   style="font-style:normal;font-variant:normal;font-weight:normal;font-stretch:normal;font-size:74.64606476px;font-family:serif;-inkscape-font-specification:'serif, Normal';font-variant-ligatures:normal;font-variant-caps:normal;font-variant-numeric:normal;font-feature-settings:normal;text-align:start;writing-mode:lr-tb;text-anchor:start;stroke-width:1.86617982;fill-opacity:1;fill:url(#linearGradient4626)">dable</tspan></text>
            </g>
          </g>
        </g>
      </g>
    </g>
  </g>
</svg>
